# Blender v2.74 (sub 0) OBJ File: 'showBox.blend'
# www.blender.org
mtllib showBox.mtl
o Plane
v 0.792215 1.000000 1.000000
v 0.792215 -1.000000 1.000000
v 0.792215 1.000000 -1.000000
v 0.792215 -1.000000 -1.000000
v -1.486460 1.000000 -1.000000
v -1.486460 1.000000 1.000000
v -1.486460 -1.000000 1.000000
v -1.486460 -1.000000 -1.000000
v 0.792215 -1.000000 1.000000
v 0.792215 -1.000000 -1.000000
v 0.792215 2.807643 2.807643
v 0.792216 -2.807643 2.807643
v 0.792215 2.807643 -2.807643
v 0.792216 -2.807643 -2.807643
v 0.792216 -2.807643 2.807643
v 0.792216 -2.807643 -2.807643
v -0.210000 -0.053258 0.413100
v -0.363731 -0.206989 0.413100
v -0.420000 -0.416989 0.413100
v -0.363731 -0.626989 0.413100
v -0.181865 -0.053258 0.308100
v -0.315000 -0.206989 0.231234
v -0.363731 -0.416989 0.203100
v -0.315000 -0.626989 0.231234
v -0.181865 -0.780719 0.308100
v -0.105000 -0.053258 0.231234
v -0.181865 -0.206989 0.098100
v -0.210000 -0.416989 0.049369
v -0.181865 -0.626989 0.098100
v -0.105000 -0.780719 0.231234
v -0.000000 -0.053258 0.203100
v -0.000000 -0.206989 0.049369
v -0.000000 -0.416989 -0.006900
v -0.000000 -0.626989 0.049369
v -0.000000 -0.780719 0.203100
v -0.000000 0.003011 0.413100
v 0.105000 -0.053258 0.231234
v 0.181865 -0.206989 0.098100
v 0.210000 -0.416989 0.049369
v 0.181865 -0.626989 0.098100
v 0.105000 -0.780719 0.231234
v 0.181865 -0.053258 0.308100
v 0.315000 -0.206989 0.231234
v 0.363731 -0.416989 0.203100
v 0.315000 -0.626989 0.231234
v 0.181865 -0.780719 0.308100
v 0.210000 -0.053258 0.413100
v 0.363731 -0.206989 0.413100
v 0.420000 -0.416989 0.413100
v 0.363730 -0.626989 0.413100
v 0.210000 -0.780719 0.413100
v -0.000000 -0.836989 0.413100
v 0.181865 -0.053258 0.518100
v 0.315000 -0.206989 0.594965
v 0.363731 -0.416989 0.623100
v 0.315000 -0.626989 0.594965
v 0.181865 -0.780719 0.518100
v 0.105000 -0.053258 0.594965
v 0.181865 -0.206989 0.728100
v 0.210000 -0.416989 0.776830
v 0.181865 -0.626989 0.728100
v 0.105000 -0.780719 0.594965
v -0.000000 -0.053258 0.623100
v -0.000000 -0.206989 0.776830
v -0.000000 -0.416989 0.833100
v -0.000000 -0.626989 0.776830
v -0.000000 -0.780719 0.623100
v -0.105000 -0.053258 0.594965
v -0.181866 -0.206989 0.728100
v -0.210000 -0.416989 0.776830
v -0.181865 -0.626989 0.728100
v -0.105000 -0.780719 0.594965
v -0.181865 -0.053258 0.518100
v -0.315000 -0.206989 0.594965
v -0.363731 -0.416989 0.623100
v -0.315000 -0.626989 0.594965
v -0.181865 -0.780719 0.518100
v -0.210000 -0.780719 0.413100
v -0.400000 0.054334 -0.067303
v -0.400000 0.854334 -0.067303
v -0.400000 0.054334 -0.867303
v -0.400000 0.854334 -0.867303
v 0.400000 0.054334 -0.067303
v 0.400000 0.854335 -0.067303
v 0.400000 0.054334 -0.867303
v 0.400000 0.854335 -0.867303
v -0.400000 0.054334 -0.067303
v -0.400000 0.854334 -0.067303
v -0.400000 0.054334 -0.867303
v -0.400000 0.854334 -0.867303
v 0.400000 0.054334 -0.067303
v 0.400000 0.854335 -0.067303
v 0.400000 0.054334 -0.867303
v 0.400000 0.854335 -0.867303
vn 0.577300 -0.577300 -0.577300
vn 0.577300 0.577300 -0.577300
vn 0.577300 0.577300 0.577300
vn 0.577300 -0.577300 0.577300
vn 0.727600 0.485100 -0.485100
vn 0.727600 0.485100 0.485100
vn 0.904500 -0.301500 0.301500
vn 0.904500 -0.301500 -0.301500
vn 1.000000 0.000000 0.000000
vn -0.876000 -0.482300 0.000000
vn -1.000000 0.000000 0.000000
vn -0.866000 0.000000 -0.500000
vn -0.758600 -0.482300 -0.438000
vn -0.876000 0.482300 0.000000
vn -0.758600 0.482300 -0.438000
vn -0.530900 0.847400 0.000000
vn -0.459800 0.847400 -0.265400
vn -0.459800 -0.847400 -0.265400
vn -0.438000 -0.482300 -0.758600
vn -0.265500 -0.847400 -0.459800
vn -0.500000 0.000000 -0.866000
vn -0.438000 0.482300 -0.758600
vn -0.265500 0.847400 -0.459800
vn 0.000000 -0.482300 -0.876000
vn 0.000000 -0.847400 -0.530900
vn 0.000000 0.000000 -1.000000
vn 0.000000 0.482300 -0.876000
vn 0.000000 0.847400 -0.530900
vn 0.438000 -0.482300 -0.758600
vn 0.265400 -0.847400 -0.459800
vn 0.500000 0.000000 -0.866000
vn 0.438000 0.482300 -0.758600
vn 0.265400 0.847400 -0.459800
vn 0.758600 -0.482300 -0.438000
vn 0.459800 -0.847400 -0.265400
vn 0.866000 0.000000 -0.500000
vn 0.758600 0.482300 -0.438000
vn 0.459800 0.847400 -0.265400
vn 0.876000 -0.482300 0.000000
vn 0.530900 -0.847400 0.000000
vn 0.876000 0.482300 0.000000
vn 0.530900 0.847400 0.000000
vn 0.758600 -0.482300 0.438000
vn 0.459800 -0.847400 0.265400
vn 0.866000 0.000000 0.500000
vn 0.758600 0.482300 0.438000
vn 0.459800 0.847400 0.265400
vn 0.438000 -0.482300 0.758600
vn 0.265400 -0.847400 0.459800
vn 0.500000 0.000000 0.866000
vn 0.438000 0.482300 0.758600
vn 0.265400 0.847400 0.459800
vn 0.000000 -0.482300 0.876000
vn 0.000000 -0.847400 0.530900
vn 0.000000 0.000000 1.000000
vn 0.000000 0.482300 0.876000
vn 0.000000 0.847400 0.530900
vn -0.438000 -0.482300 0.758600
vn -0.265500 -0.847400 0.459800
vn -0.500000 0.000000 0.866000
vn -0.438000 0.482300 0.758600
vn -0.265500 0.847400 0.459800
vn -0.758600 -0.482300 0.438000
vn -0.459800 -0.847400 0.265500
vn -0.866000 0.000000 0.500000
vn -0.758600 0.482300 0.438000
vn -0.459800 0.847400 0.265400
vn 0.000000 -1.000000 0.000000
vn -0.530900 -0.847400 0.000000
vn 0.000000 1.000000 0.000000
vn -0.577300 0.577300 0.577300
vn -0.577300 -0.577300 0.577300
vn -0.577300 0.577300 -0.577300
vn -0.577300 -0.577300 -0.577300
usemtl Base.001
s 1
f 6//1 7//2 8//3 5//4
f 2//5 4//6 8//3 7//2
f 3//7 1//8 6//1 5//4
f 3//7 10//9 16//9 13//9
f 4//6 2//5 12//9 14//9
f 1//8 3//7 13//9 11//9
f 9//9 1//8 11//9 15//9
f 20//10 19//11 23//12 24//13
f 19//11 18//14 22//15 23//12
f 18//14 17//16 21//17 22//15
f 25//18 24//13 29//19 30//20
f 24//13 23//12 28//21 29//19
f 23//12 22//15 27//22 28//21
f 22//15 21//17 26//23 27//22
f 30//20 29//19 34//24 35//25
f 29//19 28//21 33//26 34//24
f 28//21 27//22 32//27 33//26
f 27//22 26//23 31//28 32//27
f 35//25 34//24 40//29 41//30
f 34//24 33//26 39//31 40//29
f 33//26 32//27 38//32 39//31
f 32//27 31//28 37//33 38//32
f 41//30 40//29 45//34 46//35
f 40//29 39//31 44//36 45//34
f 39//31 38//32 43//37 44//36
f 38//32 37//33 42//38 43//37
f 46//35 45//34 50//39 51//40
f 45//34 44//36 49//9 50//39
f 44//36 43//37 48//41 49//9
f 43//37 42//38 47//42 48//41
f 51//40 50//39 56//43 57//44
f 50//39 49//9 55//45 56//43
f 49//9 48//41 54//46 55//45
f 48//41 47//42 53//47 54//46
f 57//44 56//43 61//48 62//49
f 56//43 55//45 60//50 61//48
f 55//45 54//46 59//51 60//50
f 54//46 53//47 58//52 59//51
f 62//49 61//48 66//53 67//54
f 61//48 60//50 65//55 66//53
f 60//50 59//51 64//56 65//55
f 59//51 58//52 63//57 64//56
f 67//54 66//53 71//58 72//59
f 66//53 65//55 70//60 71//58
f 65//55 64//56 69//61 70//60
f 64//56 63//57 68//62 69//61
f 72//59 71//58 76//63 77//64
f 71//58 70//60 75//65 76//63
f 70//60 69//61 74//66 75//65
f 69//61 68//62 73//67 74//66
f 52//68 78//69 25//18
f 78//69 20//10 24//13 25//18
f 17//16 36//70 21//17
f 52//68 25//18 30//20
f 21//17 36//70 26//23
f 52//68 30//20 35//25
f 26//23 36//70 31//28
f 52//68 35//25 41//30
f 31//28 36//70 37//33
f 52//68 41//30 46//35
f 37//33 36//70 42//38
f 52//68 46//35 51//40
f 42//38 36//70 47//42
f 52//68 51//40 57//44
f 47//42 36//70 53//47
f 52//68 57//44 62//49
f 53//47 36//70 58//52
f 52//68 62//49 67//54
f 58//52 36//70 63//57
f 52//68 67//54 72//59
f 63//57 36//70 68//62
f 52//68 72//59 77//64
f 68//62 36//70 73//67
f 52//68 77//64 78//69
f 77//64 76//63 20//10 78//69
f 76//63 75//65 19//11 20//10
f 75//65 74//66 18//14 19//11
f 74//66 73//67 17//16 18//14
f 73//67 36//70 17//16
f 80//1 79//2 81//3 82//4
f 82//4 81//3 85//71 86//72
f 86//72 85//71 83//73 84//74
f 84//74 83//73 79//2 80//1
f 79//2 83//73 85//71 81//3
f 84//74 80//1 82//4 86//72
f 88//71 90//73 89//74 87//72
f 90//73 94//2 93//1 89//74
f 94//2 92//3 91//4 93//1
f 92//3 88//71 87//72 91//4
f 87//72 89//74 93//1 91//4
f 92//3 94//2 90//73 88//71
usemtl Material.001
f 1//8 2//5 7//2 6//1
usemtl Material.002
f 4//6 3//7 5//4 8//3
